<svg xmlns="http://www.w3.org/2000/svg" viewBox="0 0 155.4 130"><defs><style>.cls-1{fill:#1f3f81;}</style></defs><title>chart-rise</title><g id="Layer_2" data-name="Layer 2"><g id="Layer_2-2" data-name="Layer 2"><path class="cls-1" d="M155.4,4.48A4.48,4.48,0,0,0,150.92,0H137.47a4.48,4.48,0,0,0-3.33,7.48l4.16,4.63L84.5,40.8,62.94,19.24A4.48,4.48,0,0,0,58,18.3L2.7,42.21A4.48,4.48,0,0,0,.37,48.1a4.53,4.53,0,0,0,5.89,2.34l52.5-22.7L80.51,49.49a4.47,4.47,0,0,0,5.28.79L144.48,19l3.11,3.45a4.48,4.48,0,0,0,7.81-3Z"/><path class="cls-1" d="M153.23,30.52a4.49,4.49,0,0,0-4.42-.11L84.5,64.71,62.94,43.15A4.48,4.48,0,0,0,58,42.21L2.7,66.12A4.46,4.46,0,0,0,0,70.23v55.29A4.49,4.49,0,0,0,4.48,130H150.92a4.48,4.48,0,0,0,4.48-4.48V34.37A4.48,4.48,0,0,0,153.23,30.52ZM9,73.18l20.32-8.79V121H9ZM38.25,60.51l20.33-8.79V121H38.25Zm29.29-.08,13,13a4.49,4.49,0,0,0,5.28.79l2.07-1.11v48H67.54ZM96.83,68.3l20.32-10.84V121H96.83ZM146.44,121H126.12V52.68l20.32-10.84Z"/></g></g></svg>