<svg xmlns="http://www.w3.org/2000/svg" viewBox="0 0 50 50"><defs><style>.cls-1{fill:#1f3f81;}</style></defs><title>client</title><g id="Layer_2" data-name="Layer 2"><g id="Layer_2-2" data-name="Layer 2"><path class="cls-1" d="M40.19,28.93v-2.5a3.68,3.68,0,0,0-3.67-3.66H25.73V18.66h9.93A3.66,3.66,0,0,0,39.32,15V3.66A3.66,3.66,0,0,0,35.66,0H21.33a.73.73,0,0,0-.73.73.72.72,0,0,0,.73.73H35.66a2.2,2.2,0,0,1,2.19,2.2V15a2.19,2.19,0,0,1-2.19,2.19H14.34A2.19,2.19,0,0,1,12.15,15V3.66a2.2,2.2,0,0,1,2.19-2.2H18.4A.73.73,0,1,0,18.4,0H14.34a3.66,3.66,0,0,0-3.66,3.66V15a3.66,3.66,0,0,0,3.66,3.66h9.93v4.11H13.48a3.68,3.68,0,0,0-3.67,3.66v2.51a10.54,10.54,0,0,0-7.88,16.6A10.71,10.71,0,0,0,10.55,50a10.55,10.55,0,0,0,.73-21.07v-2.5a2.19,2.19,0,0,1,2.2-2.19h23a2.19,2.19,0,0,1,2.2,2.19v2.51a10.62,10.62,0,0,0-8.34,5.13.75.75,0,0,0,.26,1,.73.73,0,0,0,1-.26,9.08,9.08,0,1,1,14,11.31,6.3,6.3,0,0,0-3.16-4,3.69,3.69,0,0,0,.74-2.23V36.2a2.49,2.49,0,0,0-2.49-2.49H38.22a2.49,2.49,0,0,0-2.49,2.49v3.66a3.69,3.69,0,0,0,.74,2.23,6.39,6.39,0,0,0-1.43,1,6.25,6.25,0,0,0-1.73,3,9,9,0,0,1-2.94-6.68,8.94,8.94,0,0,1,.26-2.13A.74.74,0,1,0,29.2,37a10.91,10.91,0,0,0-.29,2.48A10.55,10.55,0,1,0,40.19,28.93ZM10.55,48.54A9.12,9.12,0,0,1,5.7,47.13a4.9,4.9,0,0,1,3.08-4,3.76,3.76,0,0,0,3.53,0,4.87,4.87,0,0,1,3.08,4A9,9,0,0,1,10.55,48.54ZM10.32,38.3a2.43,2.43,0,0,1,2.14.29l.35.24v1a2.27,2.27,0,0,1-4.53,0V39Zm-2-.88V36.2a1,1,0,0,1,1-1h2.47a1,1,0,0,1,1,1v.91a3.87,3.87,0,0,0-3-.2Zm11.35,2a9,9,0,0,1-2.94,6.68,6.3,6.3,0,0,0-3.16-4,3.69,3.69,0,0,0,.74-2.23V36.2a2.49,2.49,0,0,0-2.49-2.49H9.31A2.49,2.49,0,0,0,6.82,36.2v3.66a3.69,3.69,0,0,0,.74,2.23,6.35,6.35,0,0,0-3.17,4A9.56,9.56,0,0,1,3.13,44.7a9,9,0,0,1-1.67-5.25,9.6,9.6,0,0,1,.19-1.85,9.09,9.09,0,0,1,18,1.85ZM37.19,36.2a1,1,0,0,1,1-1h2.47a1,1,0,0,1,1,1v.91a3.87,3.87,0,0,0-2.95-.2l-1.58.51V36.2Zm0,2.77,2-.67a2.43,2.43,0,0,1,2.14.29l.35.24v1a2.27,2.27,0,0,1-4.53,0V39Zm2.26,9.57a9,9,0,0,1-4.84-1.41,4.83,4.83,0,0,1,1.45-2.94,4.62,4.62,0,0,1,1.63-1,3.76,3.76,0,0,0,3.53,0,4.87,4.87,0,0,1,3.08,4,9,9,0,0,1-4.85,1.41Z"/></g></g></svg>