<svg xmlns="http://www.w3.org/2000/svg" viewBox="0 0 143 137.27"><defs><style>.cls-1{fill:#1f3f81;}</style></defs><title>clock</title><g id="Layer_2" data-name="Layer 2"><g id="Layer_2-2" data-name="Layer 2"><path class="cls-1" d="M142.72,75.24A56.36,56.36,0,0,0,98.89,25.81v-7.1A9.5,9.5,0,0,0,96.6,0H76.49a9.5,9.5,0,0,0-2.3,18.71v7.12A56.4,56.4,0,0,0,42,46.34H21.83a2.79,2.79,0,0,0,0,5.58H38.15a56,56,0,0,0-5,10.74H2.79a2.8,2.8,0,0,0,0,5.59H31.61A57.11,57.11,0,0,0,30.23,79H17.88a2.8,2.8,0,1,0,0,5.59H30.32a56,56,0,0,0,1.74,10.73H14a2.8,2.8,0,1,0,0,5.59H33.84A56.42,56.42,0,0,0,81,137c1.84.18,3.69.27,5.53.27a56.6,56.6,0,0,0,30.79-9.1,2.79,2.79,0,1,0-3-4.68,50.84,50.84,0,1,1,15-15,2.79,2.79,0,0,0,4.69,3A56.58,56.58,0,0,0,142.72,75.24ZM72.58,9.5a3.91,3.91,0,0,1,3.91-3.91H96.6a3.91,3.91,0,1,1,0,7.82H76.49A3.92,3.92,0,0,1,72.58,9.5Zm7.2,15.37V19H93.3v5.87A56.62,56.62,0,0,0,79.78,24.87Z"/><path class="cls-1" d="M124.5,116a2.78,2.78,0,0,0-2.79,2.79,2.81,2.81,0,0,0,.82,2,2.79,2.79,0,0,0,4,0,2.79,2.79,0,0,0,0-3.95A2.85,2.85,0,0,0,124.5,116Z"/><path class="cls-1" d="M86.58,37.52a43.33,43.33,0,1,0,43.33,43.33A43.37,43.37,0,0,0,86.58,37.52Zm0,81.07a37.74,37.74,0,1,1,37.75-37.74A37.78,37.78,0,0,1,86.58,118.59Z"/><path class="cls-1" d="M104.25,59.23,90.42,73.07a8.62,8.62,0,0,0-7.67,0l-6.19-6.19a2.79,2.79,0,0,0-4,4L78.8,77a8.68,8.68,0,1,0,15.57,0L107.8,63.59h0l.4-.41a2.79,2.79,0,0,0-4-4ZM86.58,83.94a3.09,3.09,0,1,1,3.1-3.09A3.09,3.09,0,0,1,86.58,83.94Z"/><path class="cls-1" d="M116.45,78.09h-2.59a2.8,2.8,0,0,0,0,5.59h2.59a2.8,2.8,0,0,0,0-5.59Z"/><path class="cls-1" d="M59.31,78H56.72a2.8,2.8,0,0,0,0,5.59h2.59a2.8,2.8,0,0,0,0-5.59Z"/><path class="cls-1" d="M86.62,56.37a2.79,2.79,0,0,0,2.79-2.79V51a2.8,2.8,0,0,0-5.59,0v2.59A2.8,2.8,0,0,0,86.62,56.37Z"/><path class="cls-1" d="M86.55,105.33a2.79,2.79,0,0,0-2.79,2.8v2.58a2.79,2.79,0,1,0,5.58,0v-2.58A2.79,2.79,0,0,0,86.55,105.33Z"/><path class="cls-1" d="M2.79,95.29a2.8,2.8,0,1,0,2,4.77,2.8,2.8,0,0,0-2-4.77Z"/></g></g></svg>