<svg xmlns="http://www.w3.org/2000/svg" viewBox="0 0 50 49.95"><defs><style>.cls-1{fill:#1f3f81;}</style></defs><title>integration</title><g id="Layer_2" data-name="Layer 2"><g id="Layer_2-2" data-name="Layer 2"><path class="cls-1" d="M5.76,18.22a.73.73,0,1,0,1-1L5,15.41l1.77-1.78a.73.73,0,1,0-1-1l-2.3,2.3a.76.76,0,0,0-.21.52.74.74,0,0,0,.21.51Z"/><path class="cls-1" d="M13,15.41l-1.78,1.77a.73.73,0,0,0,.52,1.25.73.73,0,0,0,.52-.21l2.29-2.3a.72.72,0,0,0,0-1l-2.29-2.3a.74.74,0,1,0-1,1Z"/><path class="cls-1" d="M7.93,18.38a.6.6,0,0,0,.26.05A.74.74,0,0,0,8.88,18l1.8-4.59a.73.73,0,0,0-.42-1,.72.72,0,0,0-.94.41L7.51,17.43A.74.74,0,0,0,7.93,18.38Z"/><path class="cls-1" d="M4.4,22.73H9.33a.74.74,0,0,0,0-1.47H4.4a.74.74,0,1,0,0,1.47Z"/><path class="cls-1" d="M20.68,21.26H12a.74.74,0,0,0,0,1.47h8.67a.74.74,0,0,0,0-1.47Z"/><path class="cls-1" d="M4.4,25.81H6.5a.73.73,0,1,0,0-1.46H4.4a.73.73,0,1,0,0,1.46Z"/><path class="cls-1" d="M18,24.35a.73.73,0,1,0,0,1.46h1.28a.73.73,0,0,0,0-1.46Z"/><path class="cls-1" d="M16.08,25.08a.74.74,0,0,0-.74-.73H9.06a.73.73,0,0,0,0,1.46h6.28A.74.74,0,0,0,16.08,25.08Z"/><path class="cls-1" d="M20.87,25.08a.73.73,0,0,0,.73.73H24a.73.73,0,0,0,0-1.46H21.6A.73.73,0,0,0,20.87,25.08Z"/><path class="cls-1" d="M16.88,16h2.53a.73.73,0,0,0,0-1.46H16.88a.73.73,0,0,0,0,1.46Z"/><path class="cls-1" d="M22.24,16H37.66a.73.73,0,0,0,0-1.46H22.24a.73.73,0,0,0,0,1.46Z"/><path class="cls-1" d="M35.31,17.75H29.07a.73.73,0,1,0,0,1.46h6.24a.73.73,0,1,0,0-1.46Z"/><path class="cls-1" d="M26.73,17.75H24.58a.73.73,0,0,0,0,1.46h2.15a.73.73,0,0,0,0-1.46Z"/><path class="cls-1" d="M16.88,19.21h5.26a.73.73,0,1,0,0-1.46H16.88a.73.73,0,0,0,0,1.46Z"/><path class="cls-1" d="M15.35,27.41H10.42a.73.73,0,0,0,0,1.46h4.93a.73.73,0,1,0,0-1.46Z"/><path class="cls-1" d="M8.18,27.41H4.4a.73.73,0,1,0,0,1.46H8.18a.73.73,0,0,0,0-1.46Z"/><path class="cls-1" d="M24.29,27.41H17.85a.73.73,0,0,0,0,1.46h6.44a.73.73,0,0,0,0-1.46Z"/><path class="cls-1" d="M33,23.65H29.48a.73.73,0,0,0,0,1.46H33a.73.73,0,1,0,0-1.46Z"/><path class="cls-1" d="M39.11,25.11h5a.73.73,0,1,0,0-1.46h-5a.73.73,0,0,0,0,1.46Z"/><path class="cls-1" d="M36.62,23.65H35.48a.73.73,0,0,0,0,1.46h1.14a.73.73,0,0,0,0-1.46Z"/><path class="cls-1" d="M29.48,33.09H33a.74.74,0,0,0,0-1.47H29.48a.74.74,0,0,0,0,1.47Z"/><path class="cls-1" d="M39.11,33.09h5a.74.74,0,0,0,0-1.47h-5a.74.74,0,0,0,0,1.47Z"/><path class="cls-1" d="M35.48,33.09h1.14a.74.74,0,0,0,0-1.47H35.48a.74.74,0,0,0,0,1.47Z"/><path class="cls-1" d="M33,39.6H29.48a.73.73,0,1,0,0,1.46H33a.73.73,0,1,0,0-1.46Z"/><path class="cls-1" d="M44.08,39.6h-5a.73.73,0,0,0,0,1.46h5a.73.73,0,0,0,0-1.46Z"/><path class="cls-1" d="M36.62,39.6H35.48a.73.73,0,0,0,0,1.46h1.14a.73.73,0,0,0,0-1.46Z"/><path class="cls-1" d="M46.78,0H3.22A3.22,3.22,0,0,0,0,3.22V38.63a3.23,3.23,0,0,0,3.22,3.22H6a.74.74,0,1,0,0-1.47H3.22a1.75,1.75,0,0,1-1.76-1.75V35.85H28.12v1.26h-.58a1.45,1.45,0,0,0-1.44,1.44v1.83H10.42a.74.74,0,0,0,0,1.47h7v2.62H15.25a2.68,2.68,0,0,0-2.67,2.68v1.58A1.22,1.22,0,0,0,13.8,50H36.15a1.22,1.22,0,0,0,1.22-1.22V47.15a2.68,2.68,0,0,0-2.68-2.68h-2.2v-.92H46a1.44,1.44,0,0,0,1.44-1.44v-.35a3.22,3.22,0,0,0,2.49-3.13L50,3.22A3.22,3.22,0,0,0,46.78,0ZM27.57,34.11V30.6H46v3.51Zm2-5V27.6H44v1.54ZM44,35.57v1.54H29.59V35.57Zm-25,6.28H26.1v.26a1.45,1.45,0,0,0,1.44,1.44H31v.92H18.92Zm15.77,4.09a1.21,1.21,0,0,1,1.21,1.21v1.33H14V47.15a1.21,1.21,0,0,1,1.21-1.21ZM46,42.08H27.57v-3.5H46Zm2.49-3.45a1.73,1.73,0,0,1-1,1.59V38.55A1.44,1.44,0,0,0,46,37.11h-.58V35.85h3Zm0-4.24h-1c0-.08,0-3.81,0-3.81A1.43,1.43,0,0,0,46,29.14h-.58V27.6H46a1.44,1.44,0,0,0,1.44-1.44V22.6A1.44,1.44,0,0,0,46,21.16H41.88a.74.74,0,0,0,0,1.47H46v3.51H27.57V22.63h9.76a.74.74,0,0,0,0-1.47H27.54A1.45,1.45,0,0,0,26.1,22.6v3.56a1.45,1.45,0,0,0,1.44,1.44h.58v1.54h-.58a1.44,1.44,0,0,0-1.44,1.44s0,3.73,0,3.81H1.46V10h47Zm0-25.9h-47V3.22A1.76,1.76,0,0,1,3.27,1.46H46.72a1.76,1.76,0,0,1,1.76,1.76Z"/><path class="cls-1" d="M5.4,2.81A2.15,2.15,0,1,0,7.54,5,2.15,2.15,0,0,0,5.4,2.81Zm0,2.83A.69.69,0,1,1,6.08,5,.69.69,0,0,1,5.4,5.64Z"/><path class="cls-1" d="M10.86,2.81A2.15,2.15,0,1,0,13,5,2.14,2.14,0,0,0,10.86,2.81Zm0,2.83A.69.69,0,1,1,11.55,5,.69.69,0,0,1,10.86,5.64Z"/><path class="cls-1" d="M16.33,2.81A2.15,2.15,0,1,0,18.48,5,2.15,2.15,0,0,0,16.33,2.81Zm0,2.83a.69.69,0,0,1,0-1.37.69.69,0,1,1,0,1.37Z"/></g></g></svg>