<svg xmlns="http://www.w3.org/2000/svg" viewBox="0 0 120.48 120.93"><defs><style>.cls-1{fill:#1f3f81;}</style></defs><title>listing</title><g id="Layer_2" data-name="Layer 2"><g id="Layer_2-2" data-name="Layer 2"><path class="cls-1" d="M119.24,81.2c-2.76,1.36-5.65,2.5-8.25,4.09-15.31,9.45-30.61,18.91-45.76,28.6-3.37,2.15-5.83,2.39-9.34.15-15.44-9.84-31.07-19.39-46.7-29-2.55-1.55-5.39-2.62-8.1-3.92L0,82.71c1.76,1.81,3.24,4.06,5.32,5.37C22.1,98.6,39,108.94,55.83,119.42a7.89,7.89,0,0,0,9.28,0c16.64-10.45,33.37-20.76,50-31.26,2.08-1.32,3.61-3.52,5.39-5.32C120.07,82.31,119.65,81.76,119.24,81.2Zm0-23.89A81.3,81.3,0,0,0,111,61.26C96.27,70.33,81.46,79.33,67,88.81c-4.64,3-8,3.34-12.77.19C39.56,79.43,24.55,70.43,9.63,61.31a87.34,87.34,0,0,0-8.32-4L.12,58.83c1.65,1.71,3,3.84,5,5.06C22,74.52,39.08,85,56.05,95.51a7.57,7.57,0,0,0,8.84,0c16.93-10.62,34-21.1,50.83-31.8,1.87-1.18,3.08-3.38,4.59-5.13ZM115,28.14C98.26,18.92,81.48,9.73,64.49.93a10.94,10.94,0,0,0-8.76,0C38.91,9.67,22.3,18.83,5.69,28c-7.11,3.92-7.21,9.22-.22,13.57q25,15.63,50.1,31a37.52,37.52,0,0,0,5,2.16,37.13,37.13,0,0,0,4.7-2.07c16.68-10.35,33.37-20.69,50-31.16C121.91,37.28,121.84,31.88,115,28.14Zm-3.29,9.67C95.65,47.89,79.57,58,63.35,67.85a6.61,6.61,0,0,1-5.71,0C41.1,57.9,24.71,47.68,8.3,37.49a41.93,41.93,0,0,1-3.51-2.86c1.93-1.28,3.34-2.37,4.88-3.22,15.48-8.47,30.95-17,46.55-25.23,1.86-1,5-1.42,6.72-.52,16.52,8.63,32.87,17.62,49.25,26.54a30.87,30.87,0,0,1,3.45,2.63A49,49,0,0,1,111.74,37.81Z"/><path class="cls-1" d="M115,28.14C98.26,18.92,81.48,9.73,64.49.93a10.94,10.94,0,0,0-8.76,0C38.91,9.67,22.3,18.83,5.69,28c-7.11,3.92-7.21,9.22-.22,13.57q25,15.63,50.1,31a37.52,37.52,0,0,0,5,2.16,37.13,37.13,0,0,0,4.7-2.07c16.68-10.35,33.37-20.69,50-31.16C121.91,37.28,121.84,31.88,115,28.14Z"/><path class="cls-1" d="M1.31,57.29c2.78,1.33,5.71,2.42,8.32,4C24.55,70.42,39.56,79.42,54.19,89,59,92.14,62.32,91.84,67,88.81,81.46,79.33,96.27,70.33,111,61.26a85.86,85.86,0,0,1,8.26-4l1,1.29c-1.51,1.73-2.72,3.94-4.59,5.12C98.84,74.4,81.82,84.89,64.89,95.5a7.57,7.57,0,0,1-8.84,0c-17-10.56-34-21-50.94-31.62-2-1.22-3.34-3.35-5-5.06Z"/><path class="cls-1" d="M120.48,82.86c-1.78,1.79-3.31,4-5.39,5.3-16.61,10.51-33.34,20.82-50,31.27a7.91,7.91,0,0,1-9.28,0C39,108.93,22.1,98.61,5.32,88.07,3.24,86.77,1.76,84.52,0,82.71l1.09-1.56a89,89,0,0,1,8.1,3.93c15.63,9.56,31.26,19.12,46.7,29,3.51,2.23,6,2,9.34-.16C80.38,104.19,95.68,94.74,111,85.3c2.6-1.61,5.49-2.75,8.25-4.1Z"/></g></g></svg>