<svg xmlns="http://www.w3.org/2000/svg" viewBox="0 0 43 47.78"><defs><style>.cls-1{fill:#1f3f81;}</style></defs><title>schedule</title><g id="Layer_2" data-name="Layer 2"><g id="Layer_2-2" data-name="Layer 2"><path class="cls-1" d="M34.1,23.47h3.33A1.37,1.37,0,0,0,38.8,22.1V18.77a1.37,1.37,0,0,0-1.37-1.37H34.1a1.37,1.37,0,0,0-1.37,1.37V22.1A1.38,1.38,0,0,0,34.1,23.47Zm0-4.67H37.4v3.27H34.13Zm0,13.53h3.33A1.36,1.36,0,0,0,38.8,31V27.63a1.36,1.36,0,0,0-1.37-1.36H34.1a1.37,1.37,0,0,0-1.37,1.36V31A1.37,1.37,0,0,0,34.1,32.33Zm0-4.66H37.4v3.26H34.13Zm-9.54-4.2h3.33a1.37,1.37,0,0,0,1.37-1.37V18.77a1.37,1.37,0,0,0-1.37-1.37H24.59a1.37,1.37,0,0,0-1.37,1.37V22.1A1.38,1.38,0,0,0,24.59,23.47Zm0-4.67h3.27v3.27H24.62ZM8.9,34.72H5.57A1.36,1.36,0,0,0,4.2,36.08v3.34a1.36,1.36,0,0,0,1.37,1.36H8.9a1.37,1.37,0,0,0,1.37-1.36V36.08A1.37,1.37,0,0,0,8.9,34.72Zm0,4.66H5.6V36.12H8.87Zm0-22H5.57A1.37,1.37,0,0,0,4.2,18.77V22.1a1.37,1.37,0,0,0,1.37,1.37H8.9a1.38,1.38,0,0,0,1.37-1.37V18.77A1.37,1.37,0,0,0,8.9,17.4Zm0,4.67H5.6V18.8H8.87ZM24.59,32.13h3.33a1.37,1.37,0,0,0,1.37-1.37V27.43a1.37,1.37,0,0,0-1.37-1.37H24.59a1.37,1.37,0,0,0-1.37,1.37v3.33A1.38,1.38,0,0,0,24.59,32.13Zm0-4.67h3.27v3.27H24.62ZM39.5,3.2h-3V2.13A2.13,2.13,0,0,0,34.37,0h-.32a2.13,2.13,0,0,0-2.13,2.13V3.2H11.08V2.13A2.13,2.13,0,0,0,9,0H8.63A2.13,2.13,0,0,0,6.5,2.13V3.2h-3A3.5,3.5,0,0,0,0,6.7V44.28a3.5,3.5,0,0,0,3.5,3.5h36a3.5,3.5,0,0,0,3.5-3.5V6.7a3.5,3.5,0,0,0-3.5-3.5ZM33.32,2.13a.73.73,0,0,1,.73-.73h.32a.73.73,0,0,1,.73.73V3.2H33.32ZM7.9,2.13a.73.73,0,0,1,.73-.73H9a.73.73,0,0,1,.73.73V3.2H7.9V2.13ZM41.6,44.28a2.1,2.1,0,0,1-2.1,2.1H3.5a2.1,2.1,0,0,1-2.1-2.1h0a3.51,3.51,0,0,0,2.1.7H31.88a3.48,3.48,0,0,0,2.48-1l7.24-7.24Zm-8-1.59a3.27,3.27,0,0,0,.08-.7V37.31a1.6,1.6,0,0,1,1.6-1.59H40a2.76,2.76,0,0,0,.71-.09Zm8-29.49H11.78a.7.7,0,0,0,0,1.4H41.6V32.72a1.6,1.6,0,0,1-1.6,1.6H35.33a3,3,0,0,0-3,3V42a1.59,1.59,0,0,1-1.6,1.59H3.5a2.1,2.1,0,0,1-2.1-2.1V14.6H9a.7.7,0,1,0,0-1.4H1.4V6.7A2.1,2.1,0,0,1,3.5,4.6h3V6.66A2.13,2.13,0,0,0,8.63,8.79a.7.7,0,1,0,0-1.4.73.73,0,0,1-.73-.73V4.6h24V6.66a2.14,2.14,0,0,0,2.13,2.13.7.7,0,0,0,0-1.4.73.73,0,0,1-.73-.73V4.6H39.5a2.1,2.1,0,0,1,2.1,2.1ZM8.9,26.06H5.57A1.37,1.37,0,0,0,4.2,27.43v3.33a1.37,1.37,0,0,0,1.37,1.37H8.9a1.38,1.38,0,0,0,1.37-1.37V27.43A1.37,1.37,0,0,0,8.9,26.06Zm0,4.67H5.6V27.46H8.87Zm6.21-7.26h3.33a1.38,1.38,0,0,0,1.37-1.37V18.77a1.37,1.37,0,0,0-1.37-1.37H15.08a1.37,1.37,0,0,0-1.37,1.37V22.1A1.37,1.37,0,0,0,15.08,23.47Zm0-4.67h3.27v3.27H15.11Zm9.51,20.58a.69.69,0,0,0-.7-.66.7.7,0,0,0-.7.7,1.37,1.37,0,0,0,1.37,1.36h3.33a1.36,1.36,0,0,0,1.37-1.36V36.08a1.36,1.36,0,0,0-1.37-1.36H24.59a1.37,1.37,0,0,0-1.37,1.36v1a.7.7,0,0,0,1.4,0v-.93h3.27v3.26Zm-9.54-7.25h3.33a1.38,1.38,0,0,0,1.37-1.37V27.43a1.37,1.37,0,0,0-1.37-1.37H15.08a1.37,1.37,0,0,0-1.37,1.37v3.33A1.37,1.37,0,0,0,15.08,32.13Zm0-4.67h3.27v3.27H15.11Zm0,13.32h3.33a1.37,1.37,0,0,0,1.37-1.36V36.08a1.37,1.37,0,0,0-1.37-1.36H15.08a1.36,1.36,0,0,0-1.37,1.36v3.34A1.36,1.36,0,0,0,15.08,40.78Zm0-4.66h3.27v3.26H15.11Z"/></g></g></svg>