<svg xmlns="http://www.w3.org/2000/svg" viewBox="0 0 58 51.83"><defs><style>.cls-1{fill:#1f3f81;}</style></defs><title>tag</title><g id="Layer_2" data-name="Layer 2"><g id="Layer_2-2" data-name="Layer 2"><path class="cls-1" d="M45.24,3a1.25,1.25,0,0,1,1.25,1.25V22.06a1.27,1.27,0,0,1-.36.89L23,46.12a1.27,1.27,0,0,1-.89.37,1.23,1.23,0,0,1-.88-.37L3.37,28.32a1.26,1.26,0,0,1,0-1.78L26.55,3.37A1.22,1.22,0,0,1,27.43,3H45.24M37.8,17.89a6.19,6.19,0,1,0-6.19-6.19,6.2,6.2,0,0,0,6.19,6.19M45.24,0H27.43a4.23,4.23,0,0,0-3,1.25L1.25,24.42a4.24,4.24,0,0,0,0,6l17.8,17.81a4.27,4.27,0,0,0,6,0L48.25,25.07a4.29,4.29,0,0,0,1.24-3V4.25A4.25,4.25,0,0,0,45.24,0ZM37.8,14.89A3.19,3.19,0,1,1,41,11.7a3.19,3.19,0,0,1-3.19,3.19Z"/><path class="cls-1" d="M53.75,4.25v19.8a3.69,3.69,0,0,1-1.08,2.62L29.11,50.22l.36.36a4.24,4.24,0,0,0,6,0L56.75,29.31a4.21,4.21,0,0,0,1.25-3V8.51a4.25,4.25,0,0,0-4.25-4.26Z"/></g></g></svg>