<svg xmlns="http://www.w3.org/2000/svg" viewBox="0 0 47 47"><defs><style>.cls-1{fill:#1f3f81;}</style></defs><title>team</title><g id="Layer_2" data-name="Layer 2"><g id="Layer_2-2" data-name="Layer 2"><path class="cls-1" d="M23.5,0a4.7,4.7,0,1,0,4.7,4.7A4.69,4.69,0,0,0,23.5,0Zm0,7.83A3.13,3.13,0,1,1,26.63,4.7,3.13,3.13,0,0,1,23.5,7.83Z"/><path class="cls-1" d="M26.63,10.18h-.18l-.17.09a6.25,6.25,0,0,1-5.56,0l-.17-.09h-.18a3.93,3.93,0,0,0-3.92,3.92v4.7a2.35,2.35,0,0,0,2.35,2.35h9.4a2.35,2.35,0,0,0,2.35-2.35V14.1A3.93,3.93,0,0,0,26.63,10.18ZM29,18.8a.78.78,0,0,1-.78.78H18.8A.78.78,0,0,1,18,18.8V14.1a2.34,2.34,0,0,1,2.18-2.34,7.85,7.85,0,0,0,6.6,0A2.34,2.34,0,0,1,29,14.1Z"/><path class="cls-1" d="M40,25.85a4.7,4.7,0,1,0,4.7,4.7A4.69,4.69,0,0,0,40,25.85Zm0,7.83a3.13,3.13,0,1,1,3.13-3.13A3.13,3.13,0,0,1,40,33.68Z"/><path class="cls-1" d="M43.08,36H42.9l-.17.08a6.25,6.25,0,0,1-5.56,0L37,36h-.18A3.93,3.93,0,0,0,32.9,40v4.7A2.35,2.35,0,0,0,35.25,47h9.4A2.35,2.35,0,0,0,47,44.65V40A3.93,3.93,0,0,0,43.08,36Zm2.35,8.62a.78.78,0,0,1-.78.78h-9.4a.78.78,0,0,1-.78-.78V40a2.34,2.34,0,0,1,2.18-2.34,7.85,7.85,0,0,0,6.6,0A2.34,2.34,0,0,1,45.43,40Z"/><path class="cls-1" d="M7.05,25.85a4.7,4.7,0,1,0,4.7,4.7A4.69,4.69,0,0,0,7.05,25.85Zm0,7.83a3.13,3.13,0,1,1,3.13-3.13A3.13,3.13,0,0,1,7.05,33.68Z"/><path class="cls-1" d="M10.18,36H10l-.17.08a6.25,6.25,0,0,1-5.56,0L4.1,36H3.92A3.93,3.93,0,0,0,0,40v4.7A2.35,2.35,0,0,0,2.35,47h9.4a2.35,2.35,0,0,0,2.35-2.35V40A3.93,3.93,0,0,0,10.18,36Zm2.35,8.62a.78.78,0,0,1-.78.78H2.35a.78.78,0,0,1-.78-.78V40a2.34,2.34,0,0,1,2.18-2.34,7.85,7.85,0,0,0,6.6,0A2.34,2.34,0,0,1,12.53,40Z"/><path class="cls-1" d="M31.27,39.78h0a.79.79,0,0,0-1-.42h0a17.27,17.27,0,0,1-11.17.77l.73-.21a.79.79,0,0,0,.54-1,.8.8,0,0,0-1-.54l-3.13.92,0,0-.2.11-.08,0a.83.83,0,0,0-.19.27.59.59,0,0,0-.06.32,1.87,1.87,0,0,0,.08.32v0l1.57,3a.79.79,0,1,0,1.39-.73l-.64-1.22a18.88,18.88,0,0,0,12.79-.69A.79.79,0,0,0,31.27,39.78Z"/><path class="cls-1" d="M44.42,20.6a.78.78,0,0,0-1.11,0L42.2,21.7A18.76,18.76,0,0,0,30.86,6.19a.79.79,0,0,0-1,.42.78.78,0,0,0,.41,1A17.18,17.18,0,0,1,40.6,21.48l-.88-.88a.78.78,0,0,0-1.11,1.1L41,24.05a.79.79,0,0,0,1.11,0h0l2.35-2.35A.77.77,0,0,0,44.42,20.6Z"/><path class="cls-1" d="M17.21,6.78a.59.59,0,0,0,0-.13s0,0,0,0v0a.44.44,0,0,0-.08-.11A.57.57,0,0,0,17,6.37a.54.54,0,0,0-.16-.1.27.27,0,0,0-.08-.07L13.64,4.77A.79.79,0,0,0,13,6.2l1.62.74A18.79,18.79,0,0,0,4.7,23.5a.79.79,0,0,0,1.57,0A17.2,17.2,0,0,1,14.74,8.66l-.56,1.18a.79.79,0,0,0,.36,1.05.84.84,0,0,0,.34.08.8.8,0,0,0,.71-.45l1.57-3.27v0a.47.47,0,0,0,0-.17.28.28,0,0,0,0-.13A.77.77,0,0,0,17.21,6.78Z"/></g></g></svg>